<?xml version="1.0" encoding="UTF-8"?>
<svg xmlns="http://www.w3.org/2000/svg" version="1.1" viewBox="0 0 1000 1000">
  <defs>
    <style>
      .cls-1 {
        fill: #f25b2a;
      }
    </style>
  </defs>
  <!-- Generator: Adobe Illustrator 28.7.1, SVG Export Plug-In . SVG Version: 1.2.0 Build 142)  -->
  <g>
    <g id="Layer_1">
      <g>
        <path d="M693.12,425.57c-45.6-18.74-75.27-59.72-81.76-105.24-1.75-12.31-15.05-19.16-25.7-12.74l-201.22,121.21c-9.7,5.84-15.63,16.34-15.63,27.67v117.29c0,12.1-12.99,19.75-23.57,13.87l-37.88-21.03c-10.02-5.56-16.24-16.13-16.24-27.59v-121.36c0-11.3,5.9-21.77,15.56-27.62l229.21-138.83c16.63-10.07,16.14-34.35-.87-43.75l-58.2-32.16c-14.36-7.93-31.81-7.82-46.07.3l-237.37,135.21c-16.94,9.77-27.45,27.98-27.45,47.53v277.94c0,19.62,10.47,37.75,27.46,47.56l240.71,138.98c8.34,4.81,17.83,7.35,27.44,7.35s19.12-2.55,27.46-7.35l240.72-138.98c16.98-9.8,27.44-27.93,27.44-47.53v-178.27c0-11.93-9.2-21.92-21.11-22.63-14.38-.85-28.87-4.05-42.94-9.83Z"/>
        <circle class="cls-1" cx="744.14" cy="301.43" r="89.93"/>
      </g>
    </g>
  </g>
</svg>