<svg xmlns="http://www.w3.org/2000/svg" version="1.1" viewBox="112.34 424.63 774.64 150.33">
  <defs>
    <style>
      .cls-1 {
        fill: #f25b2a;
      }
    </style>
  </defs>
  <!-- Generator: Adobe Illustrator 28.7.1, SVG Export Plug-In . SVG Version: 1.2.0 Build 142)  -->
  <g>
    <g id="Layer_1">
      <g>
        <g>
          <path d="M386.47,544.35v-73.31h16.7l.28,15.02-3.2,1.67c.92-3.34,2.74-6.38,5.43-9.11,2.69-2.74,5.89-4.94,9.6-6.61,3.71-1.67,7.51-2.5,11.41-2.5,5.57,0,10.22,1.11,13.98,3.34,3.75,2.23,6.58,5.56,8.48,10.02,1.9,4.45,2.85,10.02,2.85,16.69v44.79h-17.11v-43.54c0-3.71-.51-6.79-1.53-9.25-1.02-2.46-2.6-4.26-4.73-5.43-2.14-1.16-4.73-1.69-7.79-1.6-2.5,0-4.8.4-6.89,1.18-2.08.79-3.9,1.9-5.42,3.34-1.53,1.44-2.74,3.08-3.62,4.94-.88,1.86-1.32,3.9-1.32,6.12v44.24h-17.11Z"/>
          <path d="M370.71,470.19v73.31h-16.7l-.28-15.02,3.2-1.67c-.92,3.34-2.74,6.38-5.43,9.11-2.69,2.74-5.89,4.94-9.6,6.61-3.71,1.67-7.51,2.5-11.41,2.5-5.57,0-10.22-1.11-13.98-3.34-3.75-2.23-6.58-5.56-8.48-10.02-1.9-4.45-2.85-10.02-2.85-16.69v-44.79h17.11v43.54c0,3.71.51,6.79,1.53,9.25,1.02,2.46,2.6,4.26,4.73,5.43,2.14,1.16,4.73,1.69,7.79,1.6,2.5,0,4.8-.4,6.89-1.18,2.08-.79,3.9-1.9,5.42-3.34,1.53-1.44,2.74-3.08,3.62-4.94.88-1.86,1.32-3.9,1.32-6.12v-44.24h17.11Z"/>
          <path d="M465.62,574.95v-103.92h16.83l.28,16.69-2.92-1.25c.55-2.87,2.13-5.59,4.73-8.14,2.6-2.55,5.77-4.61,9.53-6.19,3.76-1.58,7.68-2.37,11.76-2.37,6.49,0,12.26,1.62,17.32,4.87,5.05,3.25,9.04,7.7,11.97,13.36,2.92,5.66,4.38,12.2,4.38,19.61s-1.46,13.84-4.38,19.55c-2.92,5.7-6.91,10.2-11.97,13.49-5.06,3.29-10.74,4.94-17.04,4.94-4.27,0-8.37-.83-12.31-2.5-3.94-1.67-7.28-3.85-10.02-6.54-2.74-2.69-4.43-5.52-5.08-8.49l4.17-1.95v48.83h-17.25ZM502.63,530.44c3.9,0,7.37-.97,10.43-2.92,3.06-1.95,5.45-4.64,7.16-8.07,1.72-3.43,2.57-7.37,2.57-11.82s-.83-8.37-2.5-11.75c-1.67-3.39-4.03-6.05-7.1-8-3.06-1.95-6.59-2.92-10.57-2.92s-7.63.95-10.64,2.85c-3.02,1.9-5.4,4.57-7.16,8-1.76,3.43-2.65,7.37-2.65,11.82s.88,8.39,2.65,11.82c1.76,3.43,4.15,6.12,7.16,8.07,3.01,1.95,6.56,2.92,10.64,2.92Z"/>
          <path d="M559.53,455.45c-3.43,0-6.1-.86-8-2.57-1.9-1.72-2.85-4.15-2.85-7.3,0-2.97.97-5.38,2.92-7.23,1.95-1.85,4.59-2.78,7.93-2.78,3.52,0,6.24.86,8.14,2.57,1.9,1.72,2.85,4.2,2.85,7.44,0,2.88-.97,5.24-2.92,7.09-1.95,1.86-4.64,2.78-8.07,2.78ZM551.18,544.35v-73.31h17.11v73.31h-17.11Z"/>
          <path d="M618.65,545.74c-6.87,0-13.03-1.67-18.5-5.01-5.47-3.34-9.79-7.88-12.94-13.63-3.15-5.75-4.73-12.24-4.73-19.48s1.58-13.72,4.73-19.48c3.15-5.75,7.47-10.29,12.94-13.63,5.47-3.34,11.64-5.01,18.5-5.01s12.56,1.25,17.94,3.76c5.38,2.5,9.55,5.98,12.52,10.43l-9.46,11.41c-1.39-1.95-3.15-3.71-5.28-5.29-2.14-1.58-4.41-2.83-6.82-3.76-2.41-.93-4.82-1.39-7.23-1.39-4.08,0-7.72,1-10.92,2.99-3.2,1.99-5.73,4.73-7.58,8.21-1.86,3.48-2.78,7.4-2.78,11.75s.95,8.26,2.85,11.69c1.9,3.43,4.47,6.17,7.72,8.21,3.25,2.04,6.86,3.06,10.85,3.06,2.41,0,4.75-.39,7.03-1.18,2.27-.79,4.43-1.92,6.47-3.41,2.04-1.48,3.94-3.34,5.7-5.56l9.46,11.55c-3.15,4.08-7.49,7.4-13.01,9.95-5.52,2.55-11.34,3.83-17.46,3.83Z"/>
          <path d="M659.41,544.35v-102.94h17.11v102.94h-17.11ZM675.41,521.95l-3.34-16,34.78-34.92h22.82l-54.25,50.92ZM708.93,544.35l-26.99-32.69,12.1-10.29,36.03,42.99h-21.14Z"/>
          <path d="M770.14,545.74c-7.7,0-14.49-1.62-20.38-4.87-5.89-3.25-10.48-7.67-13.77-13.29-3.29-5.61-4.94-12.03-4.94-19.27,0-5.75.93-10.99,2.78-15.72,1.85-4.73,4.43-8.83,7.72-12.31,3.29-3.48,7.23-6.17,11.82-8.07,4.59-1.9,9.62-2.85,15.09-2.85,4.82,0,9.32.93,13.5,2.78,4.17,1.86,7.79,4.38,10.85,7.58,3.06,3.2,5.4,7,7.03,11.41,1.62,4.41,2.39,9.21,2.29,14.4l-.14,5.98h-59.4l-3.2-11.69h48.27l-2.23,2.37v-3.06c-.28-2.87-1.21-5.4-2.78-7.58-1.58-2.18-3.59-3.89-6.05-5.15-2.46-1.25-5.17-1.88-8.14-1.88-4.54,0-8.37.88-11.48,2.64-3.11,1.76-5.45,4.29-7.03,7.58-1.58,3.29-2.37,7.4-2.37,12.31s1,8.86,2.99,12.38c1.99,3.53,4.82,6.24,8.48,8.14,3.66,1.9,7.95,2.85,12.87,2.85,3.43,0,6.58-.56,9.46-1.67,2.87-1.11,5.98-3.11,9.32-5.98l8.49,11.82c-2.5,2.32-5.36,4.29-8.56,5.91-3.2,1.62-6.56,2.9-10.09,3.83-3.53.93-7,1.39-10.43,1.39Z"/>
          <path d="M846.79,545.74c-6.49,0-12.31-1.65-17.46-4.94-5.15-3.29-9.23-7.79-12.24-13.49-3.01-5.7-4.52-12.26-4.52-19.68s1.48-13.86,4.45-19.61c2.97-5.75,7.03-10.27,12.17-13.57,5.15-3.29,10.97-4.94,17.46-4.94,3.52,0,6.93.56,10.22,1.67,3.29,1.11,6.24,2.62,8.83,4.52,2.6,1.9,4.66,4.01,6.19,6.33,1.53,2.32,2.39,4.73,2.57,7.23l-4.59.56v-48.41h17.11v102.94h-16.55l-.42-17.25,3.34.28c-.09,2.32-.91,4.54-2.44,6.68-1.53,2.13-3.5,4.08-5.91,5.84-2.41,1.76-5.21,3.18-8.41,4.24-3.2,1.07-6.47,1.6-9.81,1.6ZM850.13,531.27c3.99,0,7.51-1.02,10.57-3.06,3.06-2.04,5.45-4.82,7.16-8.35,1.72-3.52,2.57-7.6,2.57-12.24s-.86-8.6-2.57-12.17c-1.71-3.57-4.1-6.35-7.16-8.35-3.06-1.99-6.59-2.99-10.57-2.99s-7.51,1-10.57,2.99c-3.06,2-5.45,4.78-7.16,8.35-1.72,3.57-2.57,7.63-2.57,12.17s.86,8.72,2.57,12.24c1.71,3.53,4.11,6.31,7.16,8.35,3.06,2.04,6.59,3.06,10.57,3.06Z"/>
        </g>
        <g>
          <path d="M232.28,482.9c-10.38-4.26-17.13-13.59-18.6-23.94-.4-2.8-3.42-4.36-5.85-2.9l-45.78,27.58c-2.21,1.33-3.56,3.72-3.56,6.29v26.69c0,2.75-2.96,4.49-5.36,3.16l-8.62-4.78c-2.28-1.27-3.69-3.67-3.69-6.28v-27.61c0-2.57,1.34-4.95,3.54-6.28l52.15-31.59c3.78-2.29,3.67-7.82-.2-9.95l-13.24-7.32c-3.27-1.81-7.24-1.78-10.48.07l-54,30.76c-3.85,2.22-6.25,6.37-6.25,10.81v63.24c0,4.46,2.38,8.59,6.25,10.82l54.76,31.62c1.9,1.09,4.06,1.67,6.24,1.67s4.35-.58,6.25-1.67l54.77-31.62c3.86-2.23,6.24-6.35,6.24-10.81v-40.56c0-2.71-2.09-4.99-4.8-5.15-3.27-.19-6.57-.92-9.77-2.24Z"/>
          <circle class="cls-1" cx="243.89" cy="454.66" r="20.46"/>
        </g>
      </g>
    </g>
  </g>
</svg>