<svg xmlns="http://www.w3.org/2000/svg" width="440" height="440" viewBox="0 0 440 440" fill="none">
<path d="M38.5056 276.54C54.1021 276.54 66.7456 263.897 66.7456 248.3C66.7456 232.703 54.1021 220.06 38.5056 220.06C22.9091 220.06 10.2656 232.703 10.2656 248.3C10.2656 263.897 22.9091 276.54 38.5056 276.54Z" fill="#5FA84D"/>
<path d="M38.5072 278.06C34.6772 278.06 30.8472 277.31 27.1972 275.81C19.8472 272.79 14.1172 267.09 11.0572 259.75C4.74717 244.61 11.9172 227.16 27.0572 220.85C42.1872 214.54 59.6472 221.71 65.9572 236.85C72.2672 251.99 65.0972 269.44 49.9572 275.75C46.2672 277.29 42.3872 278.06 38.5072 278.06ZM38.4672 221.56C35.0372 221.56 31.5572 222.22 28.2072 223.62C14.5972 229.3 8.14717 244.99 13.8272 258.6C19.5072 272.21 35.1872 278.66 48.8072 272.99C62.4172 267.31 68.8672 251.62 63.1972 238.01C58.9172 227.75 48.9572 221.56 38.4772 221.56H38.4672Z" fill="#112C2D"/>
<path fill-rule="evenodd" clip-rule="evenodd" d="M34.2319 234.1C33.9019 233.32 33.0119 232.95 32.2319 233.28C31.4519 233.61 31.0819 234.5 31.4119 235.28L32.3719 237.59L30.2519 238.47C28.5619 239.17 27.2219 240.52 26.5319 242.21C25.8419 243.9 25.8419 245.8 26.5419 247.48C27.2419 249.16 28.5919 250.5 30.2819 251.2C31.9719 251.9 33.8719 251.89 35.5519 251.19L37.6719 250.31L40.6219 257.38L33.5519 260.33C32.7719 260.66 32.4019 261.55 32.7319 262.33C33.0619 263.11 33.9519 263.48 34.7319 263.15L41.8019 260.2L42.7619 262.51C43.0919 263.29 43.9819 263.66 44.7619 263.33C45.5419 263 45.9119 262.11 45.5819 261.33L44.6219 259.02L46.7419 258.14C48.4319 257.44 49.7719 256.09 50.4619 254.4C51.1519 252.71 51.1519 250.81 50.4519 249.13C49.7519 247.45 48.4019 246.11 46.7119 245.41C45.0219 244.71 43.1219 244.72 41.4419 245.42L39.3219 246.3L36.3719 239.23L42.0219 236.87C42.8019 236.54 43.1719 235.65 42.8419 234.87C42.5119 234.09 41.6219 233.72 40.8419 234.05L35.1919 236.41L34.2319 234.1ZM33.5519 240.41L31.4319 241.29C30.4919 241.68 29.7519 242.43 29.3619 243.37C28.9719 244.31 28.9819 245.36 29.3619 246.3C29.7419 247.24 30.5019 247.98 31.4419 248.37C32.3819 248.76 33.4319 248.75 34.3719 248.37L36.4919 247.49L33.5419 240.42L33.5519 240.41ZM40.5019 249.13L43.4519 256.2L45.5719 255.32C46.5119 254.93 47.2519 254.18 47.6419 253.24C48.0319 252.3 48.0219 251.25 47.6419 250.31C47.2619 249.37 46.5019 248.63 45.5619 248.24C44.6219 247.85 43.5719 247.86 42.6319 248.24L40.5119 249.12L40.5019 249.13Z" fill="#112C2D"/>
<path d="M60.3253 289.21C59.8853 289.21 59.4453 289.01 59.1453 288.64C57.5053 286.56 56.7553 285.25 56.7153 285.2C56.3053 284.48 56.5453 283.56 57.2653 283.15C57.9853 282.74 58.8953 282.98 59.3153 283.7C59.3253 283.72 60.0153 284.9 61.4953 286.79C62.0053 287.44 61.8953 288.38 61.2453 288.9C60.9653 289.12 60.6453 289.22 60.3153 289.22L60.3253 289.21Z" fill="#112C2D"/>
<path d="M128.456 320.15C128.456 320.15 128.376 320.15 128.336 320.15C125.736 319.95 123.136 319.68 120.606 319.34C119.786 319.23 119.206 318.48 119.316 317.66C119.426 316.84 120.186 316.26 120.996 316.37C123.466 316.7 126.006 316.96 128.566 317.16C129.396 317.22 130.006 317.95 129.946 318.77C129.886 319.56 129.226 320.15 128.456 320.15ZM113.226 318.12C113.136 318.12 113.036 318.12 112.936 318.09C110.366 317.59 107.806 317.02 105.346 316.38C104.546 316.17 104.066 315.35 104.276 314.55C104.486 313.75 105.296 313.26 106.106 313.48C108.506 314.1 110.996 314.67 113.506 315.15C114.316 315.31 114.856 316.09 114.696 316.91C114.556 317.63 113.926 318.13 113.226 318.13V318.12ZM98.3561 314.24C98.1961 314.24 98.0361 314.21 97.8761 314.16C95.3861 313.32 92.9261 312.4 90.5761 311.4C89.8161 311.08 89.4561 310.2 89.7761 309.44C90.0961 308.68 90.9761 308.32 91.7361 308.64C94.0161 309.6 96.4061 310.5 98.8261 311.32C99.6161 311.58 100.036 312.43 99.7661 313.22C99.5561 313.85 98.9761 314.24 98.3461 314.24H98.3561ZM84.2061 308.25C83.9761 308.25 83.7361 308.19 83.5161 308.08C81.1861 306.86 78.9061 305.55 76.7461 304.16C76.0461 303.71 75.8461 302.79 76.2861 302.09C76.7361 301.39 77.6561 301.19 78.3561 301.63C80.4461 302.96 82.6461 304.24 84.8961 305.41C85.6361 305.79 85.9161 306.7 85.5361 307.43C85.2661 307.94 84.7461 308.24 84.2061 308.24V308.25ZM71.2761 299.96C70.9561 299.96 70.6261 299.86 70.3561 299.64C68.2561 297.99 66.2661 296.26 64.4461 294.48C63.8561 293.9 63.8361 292.95 64.4161 292.36C64.9961 291.77 65.9461 291.75 66.5361 292.33C68.2861 294.03 70.1961 295.7 72.2061 297.28C72.8561 297.79 72.9761 298.73 72.4561 299.39C72.1561 299.77 71.7161 299.96 71.2761 299.96Z" fill="#112C2D"/>
<path d="M140.165 320.62C138.795 320.62 137.455 320.59 136.125 320.56C135.295 320.54 134.645 319.85 134.665 319.02C134.685 318.19 135.365 317.53 136.205 317.56C137.505 317.6 138.825 317.62 140.165 317.62C140.995 317.62 141.665 318.3 141.655 319.13C141.655 319.96 140.985 320.62 140.155 320.62H140.165Z" fill="#112C2D"/>
<path d="M362.982 405.54C360.752 405.54 357.942 405.4 354.852 405.13C354.022 405.06 353.412 404.33 353.482 403.51C353.552 402.69 354.292 402.08 355.102 402.14C358.102 402.4 360.832 402.54 362.972 402.54C363.802 402.54 364.472 403.21 364.472 404.04C364.472 404.87 363.802 405.54 362.972 405.54H362.982ZM347.012 404.24C346.942 404.24 346.872 404.24 346.812 404.23C344.152 403.87 341.472 403.45 338.832 402.97C338.012 402.82 337.472 402.04 337.622 401.23C337.772 400.41 338.552 399.87 339.362 400.02C341.952 400.49 344.592 400.91 347.212 401.26C348.032 401.37 348.612 402.13 348.492 402.95C348.392 403.7 347.742 404.25 347.012 404.25V404.24ZM331.252 401.4C331.142 401.4 331.032 401.39 330.922 401.36C328.212 400.74 325.572 400.07 323.082 399.36C322.282 399.13 321.822 398.3 322.052 397.51C322.282 396.71 323.112 396.26 323.902 396.48C326.342 397.18 328.932 397.84 331.582 398.44C332.392 398.62 332.892 399.43 332.712 400.24C332.552 400.94 331.932 401.41 331.252 401.41V401.4ZM315.872 396.96C315.702 396.96 315.532 396.93 315.362 396.87C312.652 395.89 310.122 394.83 307.832 393.74C307.082 393.38 306.772 392.49 307.122 391.74C307.482 390.99 308.372 390.68 309.122 391.03C311.312 392.08 313.762 393.09 316.382 394.04C317.162 394.32 317.562 395.18 317.282 395.96C317.062 396.57 316.482 396.95 315.872 396.95V396.96ZM301.532 389.93C301.242 389.93 300.942 389.84 300.682 389.67C298.602 388.24 296.812 386.72 295.372 385.15C294.812 384.54 294.852 383.59 295.462 383.03C296.072 382.47 297.022 382.51 297.582 383.12C298.872 384.52 300.492 385.89 302.382 387.2C303.062 387.67 303.232 388.6 302.762 389.29C302.472 389.71 302.002 389.94 301.522 389.94L301.532 389.93Z" fill="#112C2D"/>
<path d="M328.336 439.04H111.676L111.656 129.62C111.656 120.03 119.436 112.25 129.026 112.25H310.966C320.546 112.25 328.326 120.02 328.336 129.62V439.04Z" fill="white"/>
<path d="M334.846 439.04H321.826V129.62C321.816 123.63 316.946 118.77 310.966 118.77H129.026C126.126 118.77 123.406 119.9 121.356 121.95C119.306 124 118.176 126.73 118.176 129.62L118.196 439.04H105.176L105.156 129.62C105.156 123.24 107.646 117.25 112.156 112.73C116.656 108.23 122.666 105.74 129.036 105.74H310.976C324.146 105.74 334.856 116.45 334.856 129.62V439.04H334.846Z" fill="#112C2D"/>
<path d="M245.367 138.94H194.627C192.827 138.94 191.367 137.48 191.367 135.68C191.367 133.88 192.827 132.42 194.627 132.42H245.367C247.167 132.42 248.627 133.88 248.627 135.68C248.627 137.48 247.167 138.94 245.367 138.94Z" fill="#112C2D"/>
<path d="M348.553 105.16C374.842 105.16 396.153 83.8487 396.153 57.56C396.153 31.2712 374.842 9.95996 348.553 9.95996C322.264 9.95996 300.953 31.2712 300.953 57.56C300.953 83.8487 322.264 105.16 348.553 105.16Z" fill="white"/>
<path d="M348.553 106.66C321.483 106.66 299.453 84.63 299.453 57.56C299.453 30.49 321.483 8.45996 348.553 8.45996C375.623 8.45996 397.653 30.49 397.653 57.56C397.653 84.63 375.623 106.66 348.553 106.66ZM348.553 11.46C323.133 11.46 302.453 32.14 302.453 57.56C302.453 82.98 323.133 103.66 348.553 103.66C373.973 103.66 394.653 82.98 394.653 57.56C394.653 32.14 373.973 11.46 348.553 11.46Z" fill="#112C2D"/>
<path d="M371.274 57.56C371.274 70.11 361.104 80.28 348.554 80.28C342.284 80.28 336.594 77.74 332.484 73.63L348.554 57.56V34.84C361.104 34.84 371.274 45.01 371.274 57.56Z" fill="#5FA84D"/>
<path d="M348.554 81.78C342.084 81.78 335.994 79.26 331.424 74.69C331.144 74.41 330.984 74.03 330.984 73.63C330.984 73.23 331.144 72.85 331.424 72.57L347.054 56.94V34.84C347.054 34.01 347.724 33.34 348.554 33.34C361.914 33.34 372.774 44.21 372.774 57.56C372.774 70.91 361.904 81.78 348.554 81.78ZM334.644 73.59C338.504 76.95 343.384 78.78 348.554 78.78C360.254 78.78 369.774 69.26 369.774 57.56C369.774 45.86 361.054 37.16 350.054 36.39V57.56C350.054 57.96 349.894 58.34 349.614 58.62L334.644 73.59Z" fill="#5FA84D"/>
<path d="M348.555 63.74C351.968 63.74 354.735 60.9731 354.735 57.56C354.735 54.1469 351.968 51.38 348.555 51.38C345.142 51.38 342.375 54.1469 342.375 57.56C342.375 60.9731 345.142 63.74 348.555 63.74Z" fill="#112C2D"/>
<path d="M328.893 78.72C328.513 78.72 328.123 78.57 327.833 78.28C327.243 77.69 327.243 76.74 327.833 76.16L347.053 56.94V27.79C347.053 26.96 347.723 26.29 348.553 26.29C349.383 26.29 350.053 26.96 350.053 27.79V57.56C350.053 57.96 349.893 58.34 349.613 58.62L329.953 78.28C329.663 78.57 329.273 78.72 328.893 78.72Z" fill="#112C2D"/>
<path d="M307.693 59.0599H300.953C300.123 59.0599 299.453 58.3899 299.453 57.5599C299.453 56.7299 300.123 56.0599 300.953 56.0599H307.693C308.523 56.0599 309.193 56.7299 309.193 57.5599C309.193 58.3899 308.523 59.0599 307.693 59.0599Z" fill="#112C2D"/>
<path d="M396.154 59.0599H389.414C388.584 59.0599 387.914 58.3899 387.914 57.5599C387.914 56.7299 388.584 56.0599 389.414 56.0599H396.154C396.984 56.0599 397.654 56.7299 397.654 57.5599C397.654 58.3899 396.984 59.0599 396.154 59.0599Z" fill="#112C2D"/>
<path d="M348.555 106.66C347.725 106.66 347.055 105.99 347.055 105.16V98.4199C347.055 97.5899 347.725 96.9199 348.555 96.9199C349.385 96.9199 350.055 97.5899 350.055 98.4199V105.16C350.055 105.99 349.385 106.66 348.555 106.66Z" fill="#112C2D"/>
<path d="M348.555 18.2C347.725 18.2 347.055 17.53 347.055 16.7V9.95996C347.055 9.12996 347.725 8.45996 348.555 8.45996C349.385 8.45996 350.055 9.12996 350.055 9.95996V16.7C350.055 17.53 349.385 18.2 348.555 18.2Z" fill="#112C2D"/>
<path d="M401.506 417.03C417.102 417.03 429.746 404.386 429.746 388.79C429.746 373.193 417.102 360.55 401.506 360.55C385.909 360.55 373.266 373.193 373.266 388.79C373.266 404.386 385.909 417.03 401.506 417.03Z" fill="#5FA84D"/>
<path d="M401.472 418.52C394.782 418.52 388.062 416.28 382.522 411.69C376.402 406.62 372.622 399.47 371.882 391.57C371.142 383.66 373.522 375.93 378.592 369.82C383.662 363.7 390.812 359.92 398.712 359.18C406.622 358.44 414.342 360.82 420.462 365.89C433.092 376.35 434.852 395.14 424.392 407.77C418.522 414.86 410.022 418.53 401.462 418.53L401.472 418.52ZM401.552 362.04C400.702 362.04 399.852 362.08 399.002 362.16C391.892 362.83 385.462 366.22 380.912 371.73C371.502 383.09 373.092 399.98 384.442 409.38C395.792 418.79 412.692 417.2 422.092 405.85C431.502 394.49 429.912 377.6 418.562 368.2C413.722 364.19 407.762 362.05 401.552 362.05V362.04Z" fill="#112C2D"/>
<path fill-rule="evenodd" clip-rule="evenodd" d="M412.09 378.4C412.63 377.75 412.54 376.78 411.89 376.24C411.24 375.7 410.27 375.79 409.73 376.44L408.13 378.37L406.36 376.9C404.95 375.73 403.14 375.17 401.32 375.35C399.5 375.52 397.82 376.41 396.66 377.81C395.5 379.21 394.94 381.03 395.11 382.85C395.28 384.67 396.17 386.35 397.57 387.51L399.34 388.98L394.46 394.88L388.56 390C387.91 389.46 386.94 389.55 386.4 390.2C385.86 390.85 385.95 391.82 386.6 392.36L392.5 397.24L390.9 399.17C390.36 399.82 390.45 400.79 391.1 401.33C391.75 401.87 392.72 401.78 393.26 401.13L394.86 399.2L396.63 400.67C398.04 401.84 399.85 402.4 401.67 402.22C403.49 402.05 405.17 401.16 406.33 399.76C407.49 398.36 408.05 396.54 407.88 394.72C407.71 392.9 406.82 391.22 405.42 390.06L403.65 388.59L408.53 382.69L413.25 386.6C413.9 387.14 414.87 387.05 415.41 386.4C415.95 385.75 415.86 384.78 415.21 384.24L410.49 380.33L412.09 378.4ZM406.18 380.73L404.41 379.26C403.63 378.61 402.62 378.3 401.61 378.4C400.6 378.49 399.67 378.99 399.02 379.77C398.37 380.55 398.06 381.56 398.16 382.57C398.25 383.58 398.75 384.51 399.53 385.16L401.3 386.63L406.18 380.73ZM401.7 390.94L396.82 396.84L398.59 398.31C399.37 398.96 400.38 399.27 401.39 399.17C402.4 399.07 403.33 398.58 403.98 397.8C404.63 397.02 404.94 396.01 404.84 395C404.75 393.99 404.25 393.06 403.47 392.41L401.7 390.94Z" fill="#112C2D"/>
<path fill-rule="evenodd" clip-rule="evenodd" d="M386.022 189.22L393.212 157.68L366.392 151.55L359.192 183.1L347.422 180.42L364.802 220.33L397.782 191.91L386.022 189.22Z" fill="#F94949"/>
<path d="M364.798 221.83C364.688 221.83 364.578 221.82 364.468 221.79C364.008 221.68 363.618 221.36 363.428 220.93L346.048 181.02C345.818 180.5 345.908 179.9 346.268 179.46C346.628 179.02 347.198 178.83 347.758 178.96L358.058 181.31L364.928 151.22C365.018 150.83 365.258 150.49 365.598 150.28C365.938 150.07 366.348 150 366.728 150.09L393.558 156.21C394.368 156.39 394.868 157.2 394.688 158.01L387.818 188.1L398.118 190.45C398.668 190.58 399.108 191 399.238 191.55C399.378 192.1 399.188 192.68 398.758 193.05L365.788 221.47C365.508 221.71 365.168 221.83 364.808 221.83H364.798ZM349.978 182.54L365.358 217.87L394.538 192.71L385.668 190.69C384.858 190.51 384.358 189.7 384.538 188.89L391.408 158.8L367.508 153.34L360.638 183.43C360.448 184.24 359.648 184.75 358.838 184.56L349.968 182.54H349.978Z" fill="#112C2D"/>
<path d="M365.991 285.93C365.991 285.93 365.921 285.93 365.891 285.93C365.061 285.88 364.441 285.16 364.491 284.33C364.591 282.88 364.641 281.4 364.641 279.94C364.641 278.8 364.611 277.64 364.551 276.51C364.511 275.68 365.141 274.98 365.971 274.93C366.811 274.89 367.501 275.52 367.551 276.35C367.611 277.53 367.641 278.74 367.641 279.93C367.641 281.46 367.591 283 367.491 284.52C367.441 285.31 366.781 285.92 365.991 285.92V285.93ZM365.171 269.99C364.451 269.99 363.811 269.47 363.691 268.74C363.271 266.2 362.691 263.63 361.981 261.09C361.761 260.29 362.221 259.46 363.021 259.24C363.811 259.02 364.641 259.48 364.871 260.28C365.611 262.92 366.211 265.59 366.651 268.24C366.791 269.06 366.231 269.83 365.421 269.97C365.341 269.98 365.251 269.99 365.171 269.99ZM360.891 254.6C360.291 254.6 359.721 254.24 359.491 253.65C358.551 251.26 357.481 248.84 356.291 246.47C355.921 245.73 356.221 244.83 356.961 244.46C357.701 244.09 358.601 244.39 358.971 245.13C360.201 247.58 361.321 250.08 362.291 252.56C362.591 253.33 362.211 254.2 361.441 254.5C361.261 254.57 361.081 254.6 360.891 254.6ZM353.741 240.3C353.241 240.3 352.741 240.05 352.461 239.58C351.101 237.36 349.621 235.16 348.071 233.03C347.581 232.36 347.731 231.42 348.401 230.93C349.071 230.44 350.011 230.59 350.501 231.26C352.101 233.45 353.621 235.72 355.021 238.01C355.451 238.72 355.231 239.64 354.531 240.07C354.291 240.22 354.011 240.29 353.751 240.29L353.741 240.3ZM344.311 227.38C343.891 227.38 343.471 227.2 343.171 226.86C340.041 223.22 337.811 221.19 337.781 221.17C337.171 220.61 337.121 219.67 337.671 219.05C338.221 218.43 339.171 218.39 339.791 218.94C339.891 219.03 342.181 221.1 345.441 224.9C345.981 225.53 345.911 226.48 345.281 227.02C345.001 227.26 344.651 227.38 344.301 227.38H344.311Z" fill="#112C2D"/>
<path d="M128.982 429.119L153.852 378.599L59.513 332.158L34.6429 382.678L128.982 429.119Z" fill="#AFB8B8"/>
<path d="M129.671 431.13L32.6406 383.36L58.8306 330.15L155.861 377.92L129.671 431.13ZM36.6506 382L128.301 427.12L151.851 379.29L60.2006 334.17L36.6506 382Z" fill="#112C2D"/>
<path fill-rule="evenodd" clip-rule="evenodd" d="M68.2244 345.18L137.884 379.51C136.634 382.04 137.624 385.12 140.134 386.44C140.174 386.46 140.214 386.48 140.264 386.5L126.774 413.91C124.244 412.65 121.154 413.64 119.834 416.15C119.804 416.2 119.784 416.25 119.754 416.31L50.0644 381.97C51.3244 379.44 50.3344 376.35 47.8144 375.03L47.7344 374.99L61.2244 347.59C63.7544 348.84 66.8344 347.85 68.1544 345.34C68.1844 345.29 68.2044 345.25 68.2244 345.2V345.18Z" fill="white"/>
<path d="M119.735 417.8C119.515 417.8 119.285 417.75 119.085 417.65L49.3948 383.31C49.0348 383.13 48.7648 382.82 48.6348 382.44C48.5048 382.06 48.5348 381.65 48.7148 381.29C49.6048 379.5 48.8948 377.28 47.1148 376.34L47.0248 376.29C46.3148 375.91 46.0348 375.03 46.3848 374.31L59.8748 346.91C60.0548 346.55 60.3648 346.28 60.7348 346.15C61.1148 346.02 61.5248 346.05 61.8848 346.23C63.6748 347.12 65.8948 346.4 66.8248 344.62C66.9748 344.23 67.2848 343.92 67.6748 343.77C68.0648 343.62 68.5048 343.64 68.8848 343.83L138.545 378.16C138.905 378.34 139.175 378.65 139.305 379.02C139.435 379.4 139.405 379.81 139.235 380.17C138.335 381.99 139.035 384.16 140.835 385.1C141.235 385.25 141.525 385.55 141.685 385.94C141.845 386.33 141.805 386.77 141.615 387.15L128.115 414.56C127.935 414.92 127.625 415.19 127.245 415.32C126.865 415.45 126.455 415.42 126.095 415.24C124.305 414.35 122.085 415.06 121.155 416.84C120.995 417.23 120.685 417.54 120.295 417.69C120.115 417.76 119.925 417.79 119.735 417.79V417.8ZM51.9248 381.21L119.215 414.37C120.835 412.36 123.515 411.46 126.015 412.05L138.335 387.03C136.315 385.4 135.425 382.77 136.035 380.26L68.7748 347.11C67.1548 349.1 64.4948 350.01 61.9948 349.42L49.6748 374.46C51.6448 376.11 52.5148 378.74 51.9348 381.2L51.9248 381.21Z" fill="#112C2D"/>
<path d="M93.9962 394.09C101.364 394.09 107.336 388.118 107.336 380.75C107.336 373.383 101.364 367.41 93.9962 367.41C86.6288 367.41 80.6562 373.383 80.6562 380.75C80.6562 388.118 86.6288 394.09 93.9962 394.09Z" fill="#5FA84D"/>
<path fill-rule="evenodd" clip-rule="evenodd" d="M97.4004 375.33C97.5604 375 97.4304 374.61 97.1004 374.45C96.7704 374.29 96.3804 374.42 96.2204 374.75L95.7404 375.72L94.8504 375.28C94.1404 374.93 93.3304 374.88 92.5804 375.13C91.8304 375.38 91.2204 375.92 90.8704 376.63C90.5204 377.34 90.4704 378.15 90.7204 378.9C90.9704 379.65 91.5104 380.26 92.2204 380.61L93.1104 381.05L91.6504 384.01L88.6904 382.55C88.3604 382.39 87.9704 382.52 87.8104 382.85C87.6504 383.18 87.7804 383.57 88.1104 383.73L91.0704 385.19L90.5904 386.16C90.4304 386.49 90.5604 386.88 90.8904 387.04C91.2204 387.2 91.6104 387.07 91.7704 386.74L92.2504 385.77L93.1404 386.21C93.8504 386.56 94.6604 386.61 95.4104 386.36C96.1604 386.11 96.7704 385.57 97.1204 384.86C97.4704 384.15 97.5204 383.34 97.2704 382.59C97.0204 381.84 96.4804 381.23 95.7704 380.88L94.8804 380.44L96.3404 377.48L98.7104 378.65C99.0404 378.81 99.4304 378.68 99.5904 378.35C99.7504 378.02 99.6204 377.63 99.2904 377.47L96.9204 376.3L97.4004 375.33ZM95.1504 376.9L94.2604 376.46C93.8704 376.27 93.4104 376.24 93.0004 376.38C92.5904 376.52 92.2404 376.82 92.0504 377.21C91.8604 377.6 91.8304 378.06 91.9704 378.47C92.1104 378.88 92.4104 379.23 92.8004 379.42L93.6904 379.86L95.1504 376.9ZM94.2904 381.63L92.8304 384.59L93.7204 385.03C94.1104 385.22 94.5704 385.25 94.9804 385.11C95.3904 384.97 95.7404 384.67 95.9304 384.28C96.1204 383.89 96.1504 383.43 96.0104 383.02C95.8704 382.61 95.5704 382.26 95.1804 382.07L94.2904 381.63Z" fill="#112C2D"/>
<path d="M91.1715 387.62C90.9915 387.62 90.8215 387.58 90.6615 387.5C90.0915 387.22 89.8515 386.52 90.1315 385.95L90.3915 385.43L87.8815 384.19C87.3115 383.91 87.0715 383.21 87.3515 382.64C87.4915 382.36 87.7215 382.15 88.0215 382.05C88.3215 381.95 88.6315 381.97 88.9115 382.11L91.4215 383.35L92.4415 381.28L92.0015 381.06C91.1715 380.65 90.5515 379.94 90.2515 379.06C89.9515 378.18 90.0115 377.24 90.4215 376.41C90.8215 375.59 91.5515 374.95 92.4215 374.66C93.3015 374.36 94.2415 374.42 95.0715 374.83L95.5115 375.05L95.7715 374.53C95.9115 374.25 96.1415 374.04 96.4415 373.94C96.7315 373.84 97.0515 373.86 97.3315 374C97.9015 374.28 98.1415 374.98 97.8615 375.55L97.6015 376.07L99.5215 377.02C100.091 377.3 100.331 378 100.051 378.57C99.9115 378.85 99.6815 379.06 99.3815 379.16C99.0915 379.26 98.7715 379.24 98.4915 379.1L96.5715 378.15L95.5515 380.22L95.9915 380.44C96.8115 380.84 97.4515 381.57 97.7415 382.44C98.0415 383.32 97.9815 384.26 97.5715 385.09C97.1615 385.92 96.4515 386.54 95.5715 386.84C94.6915 387.14 93.7515 387.08 92.9215 386.67L92.4815 386.45L92.2215 386.97C92.0815 387.25 91.8515 387.46 91.5515 387.56C91.4315 387.6 91.3015 387.62 91.1715 387.62ZM88.4015 382.98C88.3415 382.98 88.2715 383.01 88.2415 383.07C88.2015 383.15 88.2415 383.25 88.3115 383.29L91.7215 384.97L91.0215 386.39C90.9815 386.47 91.0215 386.57 91.0915 386.61C91.1615 386.64 91.2715 386.61 91.3015 386.54L92.0015 385.12L93.3415 385.78C93.9315 386.07 94.6015 386.12 95.2315 385.9C95.8615 385.69 96.3615 385.24 96.6515 384.65C96.9415 384.06 96.9915 383.39 96.7715 382.76C96.5615 382.14 96.1015 381.63 95.5215 381.34L94.1815 380.68L96.0815 376.82L98.9015 378.21C98.9515 378.23 99.0015 378.23 99.0215 378.21C99.0415 378.21 99.0915 378.18 99.1115 378.13C99.1515 378.05 99.1115 377.95 99.0415 377.92L96.2215 376.53L96.9215 375.11C96.9615 375.03 96.9215 374.93 96.8515 374.9C96.8015 374.87 96.7515 374.88 96.7315 374.9C96.7115 374.9 96.6615 374.93 96.6415 374.98L95.9415 376.4L94.6015 375.74C94.0115 375.45 93.3415 375.4 92.7115 375.62C92.0915 375.83 91.5815 376.28 91.2915 376.87C91.0015 377.46 90.9515 378.13 91.1715 378.76C91.3815 379.38 91.8315 379.89 92.4215 380.18L93.7615 380.84L91.8615 384.7L88.4515 383.02C88.4515 383.02 88.4115 383.01 88.3915 383.01L88.4015 382.98ZM94.4515 385.7C94.1215 385.7 93.7915 385.63 93.5015 385.48L92.1615 384.82L94.0615 380.96L95.4015 381.62C95.9115 381.87 96.3015 382.31 96.4815 382.86C96.6615 383.4 96.6315 383.99 96.3715 384.5C96.1215 385.01 95.6815 385.4 95.1315 385.59C94.9115 385.67 94.6715 385.7 94.4415 385.7H94.4515ZM93.5015 384.37L93.9415 384.59C94.2115 384.72 94.5315 384.74 94.8215 384.65C95.1115 384.55 95.3515 384.34 95.4815 384.07C95.6215 383.79 95.6415 383.48 95.5415 383.19C95.4415 382.9 95.2415 382.66 94.9615 382.53L94.5215 382.31L93.5015 384.38V384.37ZM93.9215 380.53L92.5815 379.87C92.0615 379.62 91.6815 379.18 91.4915 378.63C91.3115 378.08 91.3415 377.5 91.6015 376.99C91.8515 376.47 92.2915 376.09 92.8415 375.9C93.3715 375.72 93.9715 375.76 94.4815 376.01L95.8215 376.67L93.9215 380.53ZM93.5315 376.79C93.4115 376.79 93.2815 376.81 93.1615 376.85C92.8715 376.95 92.6315 377.16 92.5015 377.43C92.3715 377.7 92.3415 378.02 92.4415 378.31C92.5415 378.6 92.7515 378.84 93.0215 378.97L93.4615 379.19L94.4815 377.12L94.0415 376.9C93.8815 376.82 93.7115 376.78 93.5315 376.78V376.79Z" fill="#112C2D"/>
<path d="M74.2293 372.27C74.0093 372.27 73.7793 372.22 73.5693 372.11L64.4693 367.62C63.7293 367.25 63.4193 366.35 63.7893 365.61C64.1593 364.87 65.0593 364.56 65.7993 364.93L74.8993 369.42C75.6393 369.79 75.9493 370.69 75.5793 371.43C75.3193 371.96 74.7893 372.27 74.2293 372.27Z" fill="#112C2D"/>
<path d="M121.19 395.43C120.97 395.43 120.74 395.38 120.53 395.27L111.43 390.78C110.69 390.41 110.38 389.51 110.75 388.77C111.12 388.03 112.02 387.72 112.76 388.09L121.86 392.58C122.6 392.95 122.91 393.85 122.54 394.59C122.28 395.12 121.75 395.43 121.19 395.43Z" fill="#112C2D"/>
<path d="M225.771 284.45C241.368 284.45 254.011 271.806 254.011 256.21C254.011 240.613 241.368 227.97 225.771 227.97C210.175 227.97 197.531 240.613 197.531 256.21C197.531 271.806 210.175 284.45 225.771 284.45Z" fill="#F94949"/>
<path d="M225.771 285.95C209.371 285.95 196.031 272.61 196.031 256.21C196.031 239.81 209.371 226.47 225.771 226.47C242.171 226.47 255.511 239.81 255.511 256.21C255.511 272.61 242.171 285.95 225.771 285.95ZM225.771 229.46C211.021 229.46 199.031 241.46 199.031 256.2C199.031 270.94 211.031 282.94 225.771 282.94C240.511 282.94 252.511 270.94 252.511 256.2C252.511 241.46 240.511 229.46 225.771 229.46Z" fill="#112C2D"/>
<path d="M233.735 265.67C233.355 265.67 232.965 265.52 232.675 265.23L216.755 249.31C216.165 248.72 216.165 247.77 216.755 247.19C217.345 246.6 218.295 246.6 218.875 247.19L234.795 263.11C235.385 263.7 235.385 264.65 234.795 265.23C234.505 265.52 234.115 265.67 233.735 265.67Z" fill="#112C2D"/>
<path d="M217.815 265.67C217.435 265.67 217.045 265.52 216.755 265.23C216.165 264.64 216.165 263.69 216.755 263.11L232.675 247.19C233.265 246.6 234.215 246.6 234.795 247.19C235.385 247.78 235.385 248.73 234.795 249.31L218.875 265.23C218.585 265.52 218.195 265.67 217.815 265.67Z" fill="#112C2D"/>
<path d="M224.878 420.27C237.608 420.27 247.928 409.95 247.928 397.22C247.928 384.49 237.608 374.17 224.878 374.17C212.148 374.17 201.828 384.49 201.828 397.22C201.828 409.95 212.148 420.27 224.878 420.27Z" fill="#5FA84D"/>
<path d="M224.909 421.77C215.369 421.77 206.269 416.17 202.299 406.85C199.729 400.82 199.659 394.15 202.109 388.06C204.559 381.98 209.229 377.21 215.259 374.64C221.289 372.07 227.959 372 234.049 374.45C240.129 376.9 244.899 381.57 247.469 387.6C252.779 400.05 246.969 414.5 234.519 419.81C231.389 421.14 228.129 421.78 224.929 421.78L224.909 421.77ZM224.869 375.66C221.999 375.66 219.139 376.24 216.419 377.4C211.129 379.66 207.029 383.84 204.879 389.18C202.729 394.52 202.789 400.38 205.049 405.67C209.709 416.6 222.389 421.7 233.319 417.04C244.249 412.38 249.349 399.7 244.689 388.77C242.429 383.48 238.249 379.38 232.909 377.23C230.309 376.18 227.589 375.66 224.869 375.66Z" fill="#112C2D"/>
<path fill-rule="evenodd" clip-rule="evenodd" d="M221.31 385.66C221.04 385.03 220.3 384.73 219.67 385C219.04 385.27 218.74 386.01 219.01 386.64L219.81 388.52L218.09 389.26C216.72 389.84 215.63 390.95 215.08 392.33C214.52 393.71 214.54 395.26 215.12 396.63C215.7 398 216.81 399.08 218.19 399.64C219.57 400.2 221.12 400.18 222.49 399.6L224.21 398.86L226.66 404.61L220.91 407.06C220.28 407.33 219.98 408.07 220.25 408.7C220.52 409.33 221.25 409.63 221.89 409.36L227.64 406.91L228.44 408.79C228.71 409.42 229.45 409.72 230.08 409.45C230.71 409.18 231.01 408.44 230.74 407.81L229.94 405.93L231.66 405.19C233.03 404.61 234.12 403.5 234.67 402.12C235.23 400.74 235.21 399.19 234.63 397.82C234.05 396.45 232.94 395.37 231.56 394.81C230.18 394.25 228.63 394.27 227.26 394.85L225.54 395.59L223.09 389.84L227.69 387.88C228.32 387.61 228.62 386.87 228.35 386.24C228.08 385.61 227.35 385.31 226.71 385.58L222.11 387.54L221.31 385.66ZM220.79 390.81L219.07 391.55C218.31 391.87 217.71 392.49 217.4 393.26C217.09 394.03 217.1 394.89 217.42 395.65C217.74 396.41 218.36 397.01 219.13 397.32C219.9 397.63 220.76 397.62 221.52 397.3L223.24 396.56L220.79 390.81ZM226.52 397.88L228.97 403.63L230.69 402.89C231.45 402.57 232.05 401.95 232.36 401.18C232.67 400.41 232.66 399.55 232.34 398.79C232.02 398.03 231.4 397.43 230.63 397.12C229.86 396.81 229 396.82 228.24 397.14L226.52 397.88Z" fill="#112C2D"/>
<path d="M411.362 311.342L379.008 265.255L292.948 325.672L325.302 371.759L411.362 311.342Z" fill="#AFB8B8"/>
<path d="M324.939 373.84L290.859 325.3L379.379 263.16L413.459 311.7L324.939 373.84ZM295.039 326.03L325.669 369.66L409.269 310.97L378.639 267.34L295.039 326.03Z" fill="#112C2D"/>
<path fill-rule="evenodd" clip-rule="evenodd" d="M308.546 324.29L372.126 279.7C373.746 282.01 376.916 282.62 379.286 281.05C379.326 281.02 379.366 281 379.396 280.97L396.946 305.98C394.626 307.59 394.006 310.78 395.576 313.15C395.606 313.2 395.636 313.25 395.676 313.29L332.066 357.9C330.456 355.58 327.266 354.96 324.896 356.53L324.816 356.58L307.266 331.58C309.586 329.96 310.196 326.78 308.626 324.42C308.596 324.37 308.566 324.33 308.536 324.29H308.546Z" fill="white"/>
<path d="M332.074 359.39C331.984 359.39 331.894 359.39 331.814 359.37C331.424 359.3 331.074 359.08 330.844 358.75C329.704 357.1 327.404 356.67 325.734 357.78C325.734 357.78 325.654 357.83 325.654 357.84C324.974 358.28 324.074 358.11 323.604 357.45L306.054 332.45C305.824 332.12 305.734 331.72 305.804 331.33C305.874 330.94 306.094 330.59 306.424 330.36C308.064 329.21 308.494 326.93 307.384 325.26C307.114 324.94 306.994 324.52 307.054 324.1C307.114 323.68 307.344 323.31 307.684 323.07L371.264 278.48C371.934 278 372.874 278.17 373.354 278.85C374.524 280.51 376.764 280.94 378.454 279.82C378.774 279.55 379.174 279.43 379.604 279.49C380.024 279.54 380.384 279.78 380.624 280.13L398.174 305.14C398.404 305.47 398.494 305.87 398.424 306.26C398.354 306.65 398.134 307 397.804 307.23C396.154 308.37 395.724 310.66 396.824 312.33C397.094 312.65 397.214 313.08 397.164 313.49C397.114 313.91 396.884 314.29 396.544 314.53L332.934 359.14C332.684 359.32 332.374 359.41 332.074 359.41V359.39ZM327.784 354.18C329.434 354.18 331.054 354.78 332.304 355.9L393.724 312.83C392.744 310.44 393.234 307.66 394.954 305.75L378.934 282.93C376.534 283.92 373.804 283.43 371.894 281.7L310.504 324.76C311.474 327.13 310.984 329.91 309.274 331.82L325.304 354.66C326.104 354.35 326.954 354.19 327.784 354.19V354.18Z" fill="#112C2D"/>
<path d="M352.129 332.12C359.497 332.12 365.469 326.148 365.469 318.78C365.469 311.413 359.497 305.44 352.129 305.44C344.762 305.44 338.789 311.413 338.789 318.78C338.789 326.148 344.762 332.12 352.129 332.12Z" fill="#5FA84D"/>
<path fill-rule="evenodd" clip-rule="evenodd" d="M349.005 313.19C348.795 312.89 348.385 312.82 348.085 313.03C347.785 313.24 347.715 313.65 347.925 313.95L348.545 314.83L347.735 315.4C347.085 315.85 346.645 316.54 346.515 317.32C346.375 318.1 346.555 318.9 347.005 319.54C347.455 320.18 348.145 320.62 348.925 320.76C349.705 320.9 350.505 320.72 351.145 320.27L351.955 319.7L353.855 322.4L351.155 324.3C350.855 324.51 350.785 324.92 350.995 325.22C351.205 325.52 351.615 325.59 351.915 325.38L354.615 323.48L355.235 324.36C355.445 324.66 355.855 324.73 356.155 324.52C356.455 324.31 356.525 323.9 356.315 323.6L355.695 322.72L356.505 322.15C357.155 321.7 357.595 321.01 357.725 320.23C357.865 319.45 357.685 318.65 357.235 318.01C356.785 317.37 356.095 316.93 355.315 316.79C354.535 316.65 353.735 316.83 353.095 317.28L352.285 317.85L350.385 315.15L352.545 313.63C352.845 313.42 352.915 313.01 352.705 312.71C352.495 312.41 352.085 312.34 351.785 312.55L349.625 314.07L349.005 313.19ZM349.305 315.91L348.495 316.48C348.135 316.73 347.895 317.11 347.815 317.55C347.735 317.99 347.835 318.43 348.085 318.78C348.335 319.13 348.715 319.38 349.155 319.46C349.585 319.54 350.035 319.44 350.385 319.19L351.195 318.62L349.295 315.92L349.305 315.91ZM353.045 318.94L354.945 321.64L355.755 321.07C356.115 320.82 356.355 320.44 356.435 320C356.515 319.56 356.415 319.12 356.165 318.77C355.915 318.42 355.535 318.17 355.095 318.09C354.655 318.01 354.215 318.11 353.865 318.36L353.055 318.93L353.045 318.94Z" fill="#112C2D"/>
<path d="M351.539 326C351.169 326 350.809 325.83 350.589 325.51C350.219 324.98 350.349 324.26 350.869 323.89L353.159 322.28L351.839 320.39L351.439 320.67C350.679 321.2 349.759 321.41 348.849 321.25C347.939 321.09 347.139 320.58 346.609 319.82C346.079 319.06 345.869 318.14 346.029 317.23C346.189 316.32 346.699 315.52 347.459 314.99L347.859 314.71L347.529 314.24C347.159 313.72 347.289 312.99 347.809 312.62C348.329 312.25 349.059 312.38 349.429 312.91L349.759 313.39L351.509 312.16C352.029 311.79 352.759 311.92 353.129 312.44C353.499 312.97 353.369 313.69 352.849 314.06L351.099 315.29L352.419 317.18L352.819 316.9C353.569 316.38 354.519 316.17 355.409 316.32C356.319 316.48 357.119 316.99 357.649 317.75C358.179 318.5 358.389 319.44 358.229 320.34C358.069 321.25 357.559 322.05 356.799 322.58L356.399 322.86L356.729 323.34C356.909 323.59 356.979 323.9 356.919 324.21C356.869 324.52 356.699 324.78 356.439 324.96C356.189 325.14 355.879 325.21 355.569 325.15C355.269 325.1 354.999 324.93 354.819 324.67L354.489 324.19L352.189 325.8C351.989 325.94 351.759 326.01 351.519 326.01L351.539 326ZM352.089 319.01L354.559 322.53L351.449 324.71C351.379 324.76 351.359 324.86 351.409 324.93C351.459 325 351.559 325.02 351.629 324.97L354.739 322.79L355.649 324.08C355.649 324.08 355.729 324.14 355.749 324.15C355.769 324.15 355.819 324.15 355.869 324.12C355.929 324.08 355.949 323.96 355.909 323.9L354.999 322.61L356.219 321.75C356.759 321.37 357.119 320.8 357.239 320.15C357.349 319.51 357.199 318.84 356.829 318.3C356.449 317.76 355.879 317.4 355.229 317.28C354.589 317.17 353.909 317.32 353.379 317.69L352.159 318.55L349.689 315.03L352.259 313.23C352.329 313.18 352.349 313.08 352.299 313.01C352.249 312.94 352.149 312.92 352.079 312.97L349.509 314.77L348.599 313.48C348.549 313.41 348.449 313.39 348.379 313.44C348.309 313.49 348.289 313.59 348.339 313.66L349.249 314.95L348.029 315.81C347.489 316.19 347.129 316.76 347.009 317.41C346.899 318.06 347.039 318.72 347.419 319.26C347.799 319.8 348.369 320.16 349.019 320.28C349.669 320.4 350.329 320.25 350.869 319.87L352.089 319.01ZM354.819 322.34L352.349 318.82L353.569 317.96C354.029 317.64 354.619 317.51 355.179 317.6C355.749 317.7 356.239 318.01 356.569 318.48C356.899 318.95 357.029 319.52 356.929 320.09C356.829 320.65 356.519 321.15 356.049 321.48L354.829 322.34H354.819ZM353.739 319.07L355.059 320.96L355.459 320.68C355.709 320.5 355.879 320.24 355.929 319.94C355.979 319.64 355.919 319.33 355.739 319.08C355.559 318.83 355.299 318.66 354.999 318.61C354.699 318.56 354.389 318.63 354.139 318.8L353.739 319.08V319.07ZM349.449 319.99C349.329 319.99 349.199 319.98 349.069 319.96C348.509 319.86 348.009 319.54 347.679 319.08C347.349 318.61 347.219 318.04 347.319 317.47C347.419 316.9 347.729 316.41 348.199 316.08L349.419 315.22L351.889 318.74L350.669 319.6C350.299 319.86 349.879 319.99 349.439 319.99H349.449ZM349.189 316.61L348.789 316.89C348.539 317.07 348.369 317.33 348.319 317.63C348.269 317.93 348.329 318.24 348.509 318.49C348.679 318.74 348.959 318.91 349.249 318.96C349.559 319.02 349.859 318.95 350.109 318.77L350.509 318.49L349.189 316.6V316.61Z" fill="#112C2D"/>
<path d="M325.566 338.64C325.096 338.64 324.626 338.42 324.336 338C323.856 337.32 324.026 336.39 324.706 335.91L333.006 330.09C333.686 329.61 334.616 329.78 335.096 330.46C335.576 331.14 335.406 332.07 334.726 332.55L326.426 338.37C326.166 338.55 325.866 338.64 325.566 338.64Z" fill="#112C2D"/>
<path d="M368.449 308.58C367.979 308.58 367.509 308.36 367.219 307.94C366.739 307.26 366.909 306.33 367.589 305.85L375.889 300.03C376.569 299.55 377.499 299.72 377.979 300.4C378.459 301.08 378.289 302.01 377.609 302.49L369.309 308.31C369.049 308.49 368.749 308.58 368.449 308.58Z" fill="#112C2D"/>
<path d="M160.48 321.68C159.52 321.68 158.68 321.56 157.98 321.33C157.28 321.1 156.69 320.79 156.23 320.41C155.77 320.03 155.42 319.62 155.19 319.17C154.95 318.72 154.83 318.28 154.82 317.84C154.82 317.72 154.86 317.62 154.95 317.54C155.04 317.46 155.15 317.43 155.27 317.43H157.13C157.27 317.43 157.38 317.46 157.48 317.51C157.58 317.57 157.66 317.68 157.73 317.84C157.85 318.21 158.06 318.51 158.34 318.73C158.62 318.95 158.95 319.11 159.32 319.19C159.69 319.28 160.09 319.32 160.5 319.32C161.33 319.32 161.99 319.12 162.47 318.73C162.96 318.34 163.2 317.78 163.2 317.04C163.2 316.3 162.97 315.78 162.52 315.46C162.07 315.14 161.43 314.97 160.62 314.97H158.49C158.34 314.97 158.21 314.93 158.12 314.84C158.02 314.75 157.98 314.63 157.98 314.48V313.61C157.98 313.47 158.01 313.35 158.07 313.25C158.13 313.15 158.2 313.06 158.27 312.99L161.97 309.37H156.06C155.91 309.37 155.79 309.32 155.7 309.23C155.61 309.13 155.57 309.02 155.57 308.88V307.52C155.57 307.37 155.61 307.24 155.7 307.15C155.79 307.05 155.91 307 156.06 307H164.93C165.08 307 165.21 307.05 165.3 307.15C165.4 307.25 165.44 307.37 165.44 307.52V308.76C165.44 308.88 165.41 308.99 165.36 309.09C165.31 309.19 165.24 309.27 165.17 309.34L161.59 313.02L161.84 313.04C162.68 313.11 163.43 313.3 164.08 313.61C164.73 313.92 165.25 314.37 165.61 314.96C165.98 315.55 166.16 316.3 166.16 317.19C166.16 318.08 165.91 318.93 165.43 319.6C164.94 320.27 164.27 320.78 163.41 321.14C162.55 321.5 161.58 321.68 160.47 321.68H160.48Z" fill="#112C2D"/>
<path d="M173.947 321.48C173.797 321.48 173.667 321.43 173.577 321.34C173.477 321.24 173.438 321.13 173.438 320.99V307.53C173.438 307.38 173.487 307.25 173.577 307.16C173.677 307.06 173.797 307.01 173.947 307.01H175.577C175.767 307.01 175.917 307.06 176.007 307.17C176.107 307.27 176.167 307.35 176.197 307.41L180.188 314.85L184.217 307.41C184.247 307.35 184.308 307.28 184.408 307.17C184.508 307.07 184.647 307.01 184.837 307.01H186.447C186.597 307.01 186.728 307.06 186.818 307.16C186.918 307.26 186.967 307.38 186.967 307.53V320.99C186.967 321.13 186.918 321.24 186.818 321.34C186.718 321.44 186.597 321.48 186.447 321.48H184.708C184.558 321.48 184.438 321.43 184.348 321.34C184.258 321.24 184.217 321.13 184.217 320.99V312.04L181.318 317.56C181.248 317.68 181.158 317.79 181.048 317.88C180.938 317.97 180.797 318.01 180.617 318.01H179.768C179.578 318.01 179.427 317.97 179.327 317.88C179.227 317.79 179.138 317.68 179.068 317.56L176.177 312.04V320.99C176.177 321.13 176.127 321.24 176.037 321.34C175.937 321.44 175.828 321.48 175.688 321.48H173.947Z" fill="#112C2D"/>
<path d="M190.365 308.95C190.225 308.95 190.115 308.9 190.015 308.8C189.915 308.7 189.875 308.59 189.875 308.45V306.96C189.875 306.82 189.925 306.71 190.015 306.61C190.115 306.51 190.225 306.47 190.365 306.47H192.245C192.395 306.47 192.525 306.52 192.615 306.61C192.715 306.71 192.755 306.82 192.755 306.96V308.45C192.755 308.59 192.705 308.71 192.615 308.8C192.515 308.9 192.395 308.95 192.245 308.95H190.365ZM190.455 321.48C190.315 321.48 190.195 321.43 190.105 321.34C190.005 321.24 189.955 321.13 189.955 320.99V311.23C189.955 311.09 190.005 310.98 190.105 310.88C190.205 310.78 190.315 310.74 190.455 310.74H192.175C192.325 310.74 192.445 310.79 192.535 310.88C192.625 310.98 192.665 311.09 192.665 311.23V320.99C192.665 321.13 192.625 321.24 192.535 321.34C192.445 321.44 192.325 321.48 192.175 321.48H190.455Z" fill="#112C2D"/>
<path d="M199.478 321.68C198.648 321.68 197.948 321.58 197.358 321.39C196.768 321.2 196.298 320.96 195.918 320.67C195.548 320.38 195.268 320.09 195.088 319.8C194.908 319.51 194.808 319.27 194.798 319.08C194.788 318.93 194.828 318.81 194.928 318.72C195.028 318.63 195.148 318.59 195.268 318.59H196.898C196.948 318.59 196.998 318.59 197.038 318.61C197.078 318.62 197.138 318.67 197.208 318.73C197.388 318.88 197.578 319.04 197.778 319.21C197.978 319.38 198.218 319.52 198.488 319.63C198.768 319.75 199.108 319.81 199.518 319.81C200.058 319.81 200.508 319.7 200.868 319.49C201.238 319.28 201.418 318.97 201.418 318.57C201.418 318.28 201.338 318.05 201.178 317.87C201.018 317.69 200.728 317.53 200.298 317.38C199.868 317.23 199.268 317.08 198.478 316.91C197.708 316.73 197.068 316.5 196.558 316.23C196.048 315.95 195.668 315.61 195.418 315.2C195.168 314.79 195.048 314.3 195.048 313.75C195.048 313.2 195.208 312.7 195.538 312.21C195.868 311.72 196.348 311.32 196.988 311C197.628 310.68 198.428 310.52 199.378 310.52C200.118 310.52 200.768 310.61 201.318 310.8C201.868 310.99 202.328 311.22 202.698 311.49C203.058 311.77 203.338 312.05 203.538 312.33C203.728 312.61 203.838 312.86 203.848 313.06C203.858 313.21 203.818 313.33 203.728 313.42C203.628 313.51 203.518 313.55 203.398 313.55H201.868C201.798 313.55 201.738 313.54 201.678 313.51C201.618 313.48 201.568 313.45 201.508 313.41C201.358 313.27 201.188 313.12 201.008 312.97C200.828 312.81 200.608 312.68 200.358 312.57C200.108 312.46 199.768 312.4 199.358 312.4C198.838 312.4 198.438 312.51 198.158 312.74C197.878 312.97 197.748 313.25 197.748 313.6C197.748 313.83 197.818 314.04 197.948 314.21C198.078 314.38 198.348 314.54 198.748 314.7C199.148 314.85 199.758 315.01 200.568 315.18C201.488 315.35 202.228 315.59 202.768 315.91C203.308 316.23 203.698 316.61 203.928 317.03C204.158 317.45 204.268 317.92 204.268 318.43C204.268 319.05 204.088 319.61 203.718 320.11C203.348 320.61 202.818 321 202.108 321.28C201.398 321.56 200.518 321.7 199.468 321.7L199.478 321.68Z" fill="#112C2D"/>
<path d="M210.478 321.68C209.648 321.68 208.948 321.58 208.358 321.39C207.768 321.2 207.298 320.96 206.918 320.67C206.548 320.38 206.268 320.09 206.088 319.8C205.908 319.51 205.808 319.27 205.798 319.08C205.788 318.93 205.828 318.81 205.928 318.72C206.028 318.63 206.148 318.59 206.268 318.59H207.898C207.948 318.59 207.998 318.59 208.038 318.61C208.078 318.62 208.138 318.67 208.208 318.73C208.388 318.88 208.578 319.04 208.778 319.21C208.978 319.38 209.218 319.52 209.488 319.63C209.768 319.75 210.108 319.81 210.518 319.81C211.058 319.81 211.508 319.7 211.868 319.49C212.238 319.28 212.418 318.97 212.418 318.57C212.418 318.28 212.338 318.05 212.178 317.87C212.018 317.69 211.728 317.53 211.298 317.38C210.868 317.23 210.268 317.08 209.478 316.91C208.708 316.73 208.068 316.5 207.558 316.23C207.048 315.95 206.668 315.61 206.418 315.2C206.168 314.79 206.048 314.3 206.048 313.75C206.048 313.2 206.208 312.7 206.538 312.21C206.868 311.72 207.348 311.32 207.988 311C208.628 310.68 209.428 310.52 210.378 310.52C211.118 310.52 211.768 310.61 212.318 310.8C212.868 310.99 213.328 311.22 213.698 311.49C214.058 311.77 214.338 312.05 214.538 312.33C214.728 312.61 214.838 312.86 214.848 313.06C214.858 313.21 214.818 313.33 214.728 313.42C214.628 313.51 214.518 313.55 214.398 313.55H212.868C212.798 313.55 212.738 313.54 212.678 313.51C212.618 313.48 212.568 313.45 212.508 313.41C212.358 313.27 212.188 313.12 212.008 312.97C211.828 312.81 211.608 312.68 211.358 312.57C211.108 312.46 210.768 312.4 210.358 312.4C209.838 312.4 209.438 312.51 209.158 312.74C208.878 312.97 208.748 313.25 208.748 313.6C208.748 313.83 208.818 314.04 208.948 314.21C209.078 314.38 209.348 314.54 209.748 314.7C210.148 314.85 210.758 315.01 211.568 315.18C212.488 315.35 213.228 315.59 213.768 315.91C214.308 316.23 214.698 316.61 214.928 317.03C215.158 317.45 215.268 317.92 215.268 318.43C215.268 319.05 215.088 319.61 214.718 320.11C214.348 320.61 213.818 321 213.108 321.28C212.398 321.56 211.518 321.7 210.468 321.7L210.478 321.68Z" fill="#112C2D"/>
<path d="M222.04 321.68C220.51 321.68 219.3 321.24 218.4 320.36C217.5 319.48 217.02 318.22 216.95 316.6C216.94 316.46 216.93 316.29 216.93 316.07C216.93 315.85 216.93 315.69 216.95 315.56C217 314.51 217.24 313.61 217.66 312.86C218.08 312.11 218.66 311.53 219.41 311.12C220.16 310.71 221.03 310.51 222.04 310.51C223.16 310.51 224.09 310.74 224.85 311.2C225.61 311.66 226.18 312.3 226.57 313.12C226.96 313.94 227.15 314.89 227.15 315.96V316.39C227.15 316.53 227.1 316.64 227 316.74C226.9 316.84 226.78 316.88 226.63 316.88H219.76V317.05C219.77 317.53 219.87 317.98 220.04 318.38C220.21 318.79 220.47 319.11 220.81 319.36C221.15 319.61 221.55 319.73 222.02 319.73C222.41 319.73 222.73 319.67 222.99 319.55C223.25 319.43 223.47 319.3 223.63 319.15C223.8 319 223.91 318.87 223.98 318.78C224.1 318.61 224.2 318.51 224.28 318.48C224.36 318.45 224.47 318.43 224.62 318.43H226.4C226.54 318.43 226.65 318.47 226.74 318.55C226.83 318.63 226.87 318.74 226.85 318.86C226.84 319.08 226.72 319.35 226.51 319.67C226.3 319.99 225.99 320.3 225.59 320.6C225.19 320.9 224.69 321.16 224.09 321.35C223.49 321.55 222.8 321.65 222.03 321.65L222.04 321.68ZM219.77 315.17H224.34V315.11C224.34 314.57 224.25 314.1 224.07 313.69C223.89 313.28 223.63 312.97 223.28 312.74C222.93 312.51 222.52 312.4 222.04 312.4C221.56 312.4 221.14 312.51 220.8 312.74C220.46 312.97 220.2 313.28 220.02 313.69C219.85 314.1 219.76 314.57 219.76 315.11V315.17H219.77Z" fill="#112C2D"/>
<path d="M233.334 321.68C232.614 321.68 231.984 321.56 231.444 321.32C230.904 321.08 230.444 320.74 230.094 320.3C229.734 319.86 229.464 319.34 229.264 318.74C229.074 318.14 228.964 317.48 228.934 316.77C228.924 316.52 228.914 316.3 228.914 316.1C228.914 315.9 228.914 315.68 228.934 315.43C228.964 314.74 229.064 314.1 229.254 313.51C229.444 312.92 229.714 312.4 230.084 311.95C230.454 311.5 230.904 311.15 231.454 310.91C231.994 310.66 232.624 310.54 233.344 310.54C234.064 310.54 234.724 310.67 235.234 310.92C235.754 311.18 236.184 311.5 236.524 311.9V307.31C236.524 307.17 236.564 307.06 236.654 306.96C236.744 306.86 236.864 306.82 237.014 306.82H238.774C238.914 306.82 239.024 306.87 239.124 306.96C239.224 307.06 239.264 307.17 239.264 307.31V321C239.264 321.14 239.214 321.25 239.124 321.35C239.024 321.45 238.914 321.49 238.774 321.49H237.144C236.994 321.49 236.874 321.44 236.784 321.35C236.694 321.25 236.654 321.14 236.654 321V320.23C236.314 320.66 235.874 321.01 235.344 321.28C234.814 321.56 234.144 321.69 233.344 321.69L233.334 321.68ZM234.104 319.47C234.684 319.47 235.144 319.34 235.484 319.08C235.824 318.82 236.084 318.48 236.254 318.08C236.424 317.67 236.504 317.26 236.524 316.83C236.534 316.58 236.544 316.32 236.544 316.03C236.544 315.74 236.544 315.48 236.524 315.23C236.514 314.82 236.414 314.42 236.234 314.04C236.054 313.66 235.794 313.35 235.444 313.1C235.094 312.85 234.654 312.73 234.104 312.73C233.524 312.73 233.064 312.86 232.724 313.11C232.384 313.37 232.144 313.7 231.994 314.11C231.844 314.52 231.754 314.98 231.724 315.47C231.714 315.88 231.714 316.3 231.724 316.71C231.754 317.21 231.844 317.66 231.994 318.07C232.144 318.48 232.394 318.82 232.724 319.07C233.054 319.32 233.524 319.45 234.104 319.45V319.47Z" fill="#112C2D"/>
<path d="M251.402 321.68C250.412 321.68 249.533 321.49 248.783 321.12C248.033 320.75 247.443 320.21 247.023 319.5C246.603 318.79 246.373 317.93 246.333 316.93C246.323 316.72 246.312 316.45 246.312 316.11C246.312 315.77 246.313 315.49 246.333 315.27C246.373 314.26 246.603 313.41 247.023 312.7C247.443 311.99 248.033 311.45 248.783 311.08C249.533 310.71 250.402 310.52 251.402 310.52C252.282 310.52 253.032 310.64 253.652 310.88C254.272 311.12 254.782 311.43 255.182 311.81C255.582 312.19 255.882 312.58 256.082 312.99C256.282 313.4 256.392 313.77 256.402 314.1C256.412 314.25 256.372 314.37 256.272 314.46C256.172 314.55 256.053 314.59 255.913 314.59H254.092C253.952 314.59 253.853 314.56 253.773 314.49C253.693 314.42 253.623 314.32 253.553 314.18C253.343 313.63 253.072 313.24 252.732 313.01C252.392 312.78 251.963 312.67 251.443 312.67C250.753 312.67 250.203 312.89 249.803 313.32C249.393 313.75 249.182 314.44 249.152 315.38C249.122 315.9 249.122 316.39 249.152 316.83C249.182 317.78 249.393 318.47 249.803 318.9C250.213 319.33 250.753 319.54 251.443 319.54C251.983 319.54 252.413 319.43 252.743 319.2C253.073 318.97 253.343 318.58 253.553 318.03C253.623 317.89 253.693 317.79 253.773 317.72C253.853 317.65 253.952 317.62 254.092 317.62H255.913C256.053 317.62 256.172 317.66 256.272 317.75C256.372 317.84 256.422 317.96 256.402 318.11C256.392 318.36 256.323 318.64 256.203 318.95C256.083 319.26 255.903 319.58 255.643 319.9C255.393 320.22 255.062 320.52 254.682 320.79C254.292 321.06 253.833 321.28 253.283 321.44C252.743 321.61 252.113 321.69 251.393 321.69L251.402 321.68Z" fill="#112C2D"/>
<path d="M261.682 321.68C260.962 321.68 260.312 321.54 259.742 321.26C259.162 320.98 258.702 320.6 258.362 320.12C258.022 319.64 257.852 319.11 257.852 318.52C257.852 317.56 258.242 316.79 259.032 316.21C259.822 315.64 260.842 315.26 262.112 315.06L264.942 314.65V314.22C264.942 313.64 264.802 313.19 264.512 312.88C264.222 312.56 263.722 312.4 263.022 312.4C262.522 312.4 262.122 312.5 261.812 312.7C261.502 312.9 261.272 313.17 261.122 313.5C261.012 313.68 260.852 313.77 260.642 313.77H259.012C258.862 313.77 258.742 313.73 258.672 313.65C258.592 313.57 258.562 313.46 258.562 313.32C258.572 313.1 258.672 312.83 258.842 312.51C259.012 312.19 259.272 311.89 259.632 311.59C259.982 311.29 260.442 311.04 261.012 310.84C261.582 310.63 262.262 310.53 263.062 310.53C263.932 310.53 264.662 310.64 265.262 310.85C265.862 311.06 266.342 311.35 266.702 311.71C267.062 312.07 267.322 312.49 267.492 312.97C267.662 313.45 267.742 313.96 267.742 314.5V320.99C267.742 321.13 267.692 321.24 267.592 321.34C267.492 321.44 267.382 321.48 267.242 321.48H265.572C265.422 321.48 265.302 321.43 265.212 321.34C265.122 321.24 265.082 321.13 265.082 320.99V320.18C264.902 320.43 264.662 320.67 264.362 320.9C264.062 321.13 263.692 321.32 263.252 321.47C262.822 321.61 262.302 321.69 261.712 321.69L261.682 321.68ZM262.382 319.72C262.862 319.72 263.302 319.62 263.692 319.41C264.082 319.2 264.392 318.88 264.622 318.45C264.852 318.02 264.962 317.47 264.962 316.81V316.38L262.892 316.71C262.082 316.83 261.472 317.03 261.072 317.31C260.672 317.59 260.472 317.92 260.472 318.32C260.472 318.62 260.562 318.88 260.752 319.1C260.942 319.31 261.172 319.47 261.462 319.58C261.752 319.68 262.052 319.73 262.372 319.73L262.382 319.72Z" fill="#112C2D"/>
<path d="M270.881 321.48C270.741 321.48 270.621 321.43 270.531 321.34C270.431 321.24 270.391 321.13 270.391 320.99V307.3C270.391 307.16 270.441 307.05 270.531 306.95C270.631 306.85 270.741 306.81 270.881 306.81H272.601C272.741 306.81 272.851 306.86 272.951 306.95C273.051 307.05 273.091 307.16 273.091 307.3V320.99C273.091 321.13 273.041 321.24 272.951 321.34C272.851 321.44 272.741 321.48 272.601 321.48H270.881Z" fill="#112C2D"/>
<path d="M276.365 321.48C276.225 321.48 276.105 321.43 276.015 321.34C275.915 321.24 275.875 321.13 275.875 320.99V307.3C275.875 307.16 275.925 307.05 276.015 306.95C276.115 306.85 276.225 306.81 276.365 306.81H278.085C278.225 306.81 278.335 306.86 278.435 306.95C278.535 307.05 278.575 307.16 278.575 307.3V320.99C278.575 321.13 278.525 321.24 278.435 321.34C278.335 321.44 278.225 321.48 278.085 321.48H276.365Z" fill="#112C2D"/>
<path d="M285.4 321.68C284.57 321.68 283.87 321.58 283.28 321.39C282.69 321.2 282.22 320.96 281.84 320.67C281.47 320.38 281.19 320.09 281.01 319.8C280.83 319.51 280.73 319.27 280.72 319.08C280.71 318.93 280.75 318.81 280.85 318.72C280.95 318.63 281.07 318.59 281.19 318.59H282.82C282.87 318.59 282.92 318.59 282.96 318.61C283 318.62 283.06 318.67 283.13 318.73C283.31 318.88 283.5 319.04 283.7 319.21C283.9 319.38 284.14 319.52 284.41 319.63C284.69 319.75 285.03 319.81 285.44 319.81C285.98 319.81 286.43 319.7 286.79 319.49C287.16 319.28 287.34 318.97 287.34 318.57C287.34 318.28 287.26 318.05 287.1 317.87C286.94 317.69 286.65 317.53 286.22 317.38C285.79 317.23 285.19 317.08 284.4 316.91C283.63 316.73 282.99 316.5 282.48 316.23C281.97 315.95 281.59 315.61 281.34 315.2C281.09 314.79 280.97 314.3 280.97 313.75C280.97 313.2 281.13 312.7 281.46 312.21C281.79 311.72 282.27 311.32 282.91 311C283.55 310.68 284.35 310.52 285.3 310.52C286.04 310.52 286.69 310.61 287.24 310.8C287.79 310.99 288.25 311.22 288.62 311.49C288.98 311.77 289.26 312.05 289.46 312.33C289.65 312.61 289.76 312.86 289.77 313.06C289.78 313.21 289.74 313.33 289.65 313.42C289.55 313.51 289.44 313.55 289.32 313.55H287.79C287.72 313.55 287.66 313.54 287.6 313.51C287.54 313.48 287.49 313.45 287.43 313.41C287.28 313.27 287.11 313.12 286.93 312.97C286.75 312.81 286.53 312.68 286.28 312.57C286.03 312.46 285.69 312.4 285.28 312.4C284.76 312.4 284.36 312.51 284.08 312.74C283.8 312.97 283.67 313.25 283.67 313.6C283.67 313.83 283.74 314.04 283.87 314.21C284 314.38 284.27 314.54 284.67 314.7C285.07 314.85 285.68 315.01 286.49 315.18C287.41 315.35 288.15 315.59 288.69 315.91C289.23 316.23 289.62 316.61 289.85 317.03C290.08 317.45 290.19 317.92 290.19 318.43C290.19 319.05 290.01 319.61 289.64 320.11C289.27 320.61 288.74 321 288.03 321.28C287.32 321.56 286.44 321.7 285.39 321.7L285.4 321.68Z" fill="#112C2D"/>
<path d="M110.589 135.77C114.859 135.77 118.319 132.309 118.319 128.04C118.319 123.771 114.859 120.31 110.589 120.31C106.32 120.31 102.859 123.771 102.859 128.04C102.859 132.309 106.32 135.77 110.589 135.77Z" fill="#5FA84D"/>
<path d="M110.589 137.27C105.499 137.27 101.359 133.13 101.359 128.04C101.359 122.95 105.499 118.81 110.589 118.81C115.679 118.81 119.819 122.95 119.819 128.04C119.819 133.13 115.679 137.27 110.589 137.27ZM110.589 121.81C107.149 121.81 104.359 124.61 104.359 128.04C104.359 131.47 107.159 134.27 110.589 134.27C114.019 134.27 116.819 131.47 116.819 128.04C116.819 124.61 114.019 121.81 110.589 121.81Z" fill="#112C2D"/>
<path d="M139.22 127.27C138.97 127.91 138.58 128.04 137.81 128.04H83.3603C82.5903 128.04 82.2103 127.79 81.9503 127.27C81.8203 127.14 81.8203 126.89 81.8203 126.63C81.8203 126.5 81.8203 126.25 81.9503 126.12C82.0803 125.87 82.8403 125.23 84.1203 124.84C87.4503 123.69 89.4903 120.5 89.4903 116.4V97.87C89.6203 93.27 90.7703 89.18 93.1903 85.47C95.8803 81.25 99.3303 78.44 103.29 76.91C103.93 76.66 104.57 76.4 105.21 76.27H105.34C105.85 76.14 106.49 76.02 107.13 75.89C109.05 75.64 111.47 75.64 113.91 76.02C114.55 76.15 115.19 76.15 115.83 76.27C116.47 76.4 117.11 76.52 117.75 76.78C121.58 78.06 124.91 80.87 127.85 85.47C130.28 89.17 131.55 93.39 131.55 97.87C131.68 102.21 131.55 106.69 131.55 111.04V116.54C131.55 120.63 133.6 123.82 136.92 124.98C138.2 125.36 138.84 125.87 139.09 126.13C139.09 126.26 139.22 126.51 139.22 126.64C139.49 126.89 139.36 127.15 139.23 127.28L139.22 127.27Z" fill="white"/>
<path d="M137.81 129.54H83.3603C82.1303 129.54 81.2403 129.06 80.6903 128.1C80.3203 127.58 80.3203 126.98 80.3203 126.63C80.3203 126.4 80.3203 125.76 80.7503 125.22C81.2503 124.51 82.3903 123.8 83.6903 123.41C86.3603 122.49 87.9903 119.86 87.9903 116.41V97.88C88.1303 92.81 89.4203 88.5 91.9403 84.66C94.7203 80.3 98.3603 77.22 102.75 75.52C103.39 75.26 104.13 74.97 104.91 74.81C104.99 74.79 105.07 74.78 105.15 74.78C105.57 74.68 106.06 74.58 106.57 74.48L106.83 74.43C106.83 74.43 106.9 74.42 106.93 74.41C109.16 74.11 111.72 74.16 114.14 74.55C114.48 74.62 114.76 74.64 115.03 74.67C115.39 74.71 115.75 74.74 116.11 74.81C116.84 74.96 117.56 75.1 118.29 75.4C122.44 76.78 126 79.82 129.09 84.68C131.7 88.67 133.03 93.11 133.03 97.88C133.12 100.77 133.09 103.78 133.06 106.69C133.05 108.15 133.03 109.6 133.03 111.04V116.54C133.03 119.99 134.66 122.61 137.39 123.56C138.84 123.99 139.68 124.62 140.13 125.06C140.35 125.28 140.5 125.57 140.55 125.88C140.55 125.91 140.57 125.94 140.58 125.97C140.75 126.26 140.85 126.57 140.86 126.91C140.86 127.31 140.75 127.71 140.51 128.05C139.79 129.54 138.36 129.54 137.8 129.54H137.81ZM83.8803 126.54H136.86C136.74 126.5 136.61 126.45 136.47 126.41C132.48 125.02 130.03 121.25 130.03 116.54V111.04C130.03 109.59 130.04 108.13 130.06 106.66C130.09 103.78 130.12 100.79 130.03 97.92C130.03 93.7 128.86 89.8 126.57 86.3C123.85 82.03 120.81 79.39 117.25 78.21C116.68 77.99 116.15 77.88 115.59 77.76C115.26 77.69 114.99 77.67 114.72 77.64C114.34 77.6 113.97 77.56 113.59 77.49C111.56 77.17 109.27 77.12 107.36 77.37L107.15 77.41C106.63 77.52 106.12 77.62 105.7 77.73C105.59 77.76 105.48 77.77 105.37 77.78C104.89 77.89 104.36 78.11 103.84 78.31C100.04 79.78 96.8903 82.46 94.4503 86.29C92.2403 89.67 91.1003 93.47 90.9803 97.92V116.41C90.9803 121.13 88.5403 124.91 84.6003 126.27C84.3103 126.36 84.0703 126.45 83.8703 126.55L83.8803 126.54Z" fill="#112C2D"/>
</svg>