<?xml version="1.0" encoding="utf-8"?>
<!-- Generator: Adobe Illustrator 16.0.0, SVG Export Plug-In . SVG Version: 6.00 Build 0)  -->
<!DOCTYPE svg PUBLIC "-//W3C//DTD SVG 1.1//EN" "http://www.w3.org/Graphics/SVG/1.1/DTD/svg11.dtd">
<svg version="1.1" id="Layer_1" xmlns="http://www.w3.org/2000/svg" xmlns:xlink="http://www.w3.org/1999/xlink" x="0px" y="0px"
	 width="490.667px" height="100.333px" viewBox="0 0 490.667 70.333" enable-background="new 0 0 490.667 100.333"
	 xml:space="preserve">
<path fill="#C72128" d="M75.229,43.852c0,4.516-0.631,7.842-1.88,9.946c-1.523,2.565-4.312,4.299-8.387,5.205
	c-3.48,0.746-9.136,1.13-16.992,1.13H27.65c-6.987,0-11.919-0.656-14.8-1.97c-4.381-2.004-6.564-6.041-6.564-12.079v-3.552h16.838
	c0,2.514,0.604,4.182,1.813,4.987c0.951,0.656,2.756,0.979,5.418,0.979h20.503c4.775,0,7.153-1.461,7.153-4.377
	c0-1.963-0.862-3.272-2.568-3.924c-0.859-0.305-2.597-0.536-5.227-0.679c-2.609-0.158-7.883-0.232-15.801-0.232H21.184
	c-5.196-0.401-8.978-1.8-11.348-4.197c-2.364-2.4-3.55-6.198-3.55-11.397c0-5.75,1.029-9.71,3.104-11.882
	c3.066-3.179,9.397-4.771,18.962-4.771h23.451c8.872,0,14.813,1.413,17.834,4.226c2.219,2.074,3.331,5.767,3.331,11.108v1.66H56.129
	c0-2.519-0.754-4.104-2.259-4.758c-0.912-0.402-2.865-0.602-5.888-0.602H29.449c-4.21,0-6.325,1.336-6.325,3.999
	c0,1.858,0.729,3.099,2.188,3.703c0.756,0.352,2.31,0.601,4.681,0.75c1.57,0.106,5.943,0.15,13.144,0.15h13.44
	c5.487,0.254,9.666,1.258,12.536,3.024c3.721,2.251,5.742,5.87,6.041,10.846C75.206,41.995,75.229,42.904,75.229,43.852"/>
<path fill="#C72128" d="M135.721,28.034v-2.04c0-3.672-2.291-5.511-6.856-5.511h-24.559v13.064h25.994
	C133.907,33.547,135.721,31.712,135.721,28.034 M152.94,29.853c0,5.025-1.282,9.009-3.855,11.92
	c-2.707,3.127-6.553,4.688-11.53,4.688h-33.25v13.066H87.467V7.571h45.683c6.638,0,11.53,1.308,14.653,3.927
	c3.422,2.864,5.137,7.498,5.137,13.896V29.853z"/>
<polygon fill="#C72128" points="318.086,59.527 292.081,59.527 260.549,21.767 260.549,59.527 243.709,59.527 243.709,7.571 
	269.719,7.571 301.252,45.331 301.252,7.571 318.086,7.571 "/>
<path fill="#C72128" d="M387.942,36.341v-5.584c0-3.783-0.79-6.463-2.384-8.05c-1.588-1.583-4.293-2.374-8.118-2.374h-19.628
	c-3.829,0-6.532,0.791-8.113,2.374c-1.593,1.587-2.39,4.268-2.39,8.05v5.584c0,3.875,0.604,6.544,1.82,8.007
	c1.355,1.611,3.951,2.419,7.772,2.419h21.451c3.827,0,6.412-0.808,7.771-2.419C387.337,42.886,387.942,40.217,387.942,36.341
	 M405.156,41.322c0,7.401-2.285,12.538-6.864,15.41c-3.582,2.257-9.313,3.4-17.224,3.4h-26.888c-7.844,0-13.583-1.143-17.208-3.4
	c-4.585-2.919-6.881-8.057-6.881-15.41V25.841c0-7.351,2.296-12.481,6.881-15.404c3.625-2.26,9.364-3.397,17.208-3.397h26.888
	c7.91,0,13.642,1.138,17.224,3.397c4.579,2.873,6.864,8.008,6.864,15.404V41.322z"/>
<path fill="#C72128" d="M485.134,43.852c0,4.516-0.641,7.842-1.89,9.946c-1.509,2.565-4.309,4.299-8.386,5.205
	c-3.474,0.746-9.135,1.13-16.99,1.13h-20.317c-6.992,0-11.924-0.656-14.8-1.97c-4.381-2.004-6.571-6.041-6.571-12.079v-3.552h16.847
	c0,2.514,0.601,4.182,1.809,4.987c0.95,0.656,2.759,0.979,5.42,0.979h20.495c4.78,0,7.156-1.461,7.156-4.377
	c0-1.963-0.859-3.272-2.565-3.924c-0.859-0.305-2.593-0.536-5.222-0.679c-2.613-0.158-7.881-0.232-15.798-0.232h-13.235
	c-5.197-0.401-8.978-1.8-11.354-4.197c-2.366-2.4-3.552-6.198-3.552-11.397c0-5.75,1.037-9.71,3.111-11.882
	c3.066-3.179,9.389-4.771,18.963-4.771h23.445c8.868,0,14.813,1.413,17.837,4.226c2.214,2.074,3.326,5.767,3.326,11.108v1.66
	h-16.831c0-2.519-0.763-4.104-2.263-4.758c-0.908-0.402-2.871-0.602-5.882-0.602h-18.531c-4.226,0-6.329,1.336-6.329,3.999
	c0,1.858,0.731,3.099,2.188,3.703c0.757,0.352,2.311,0.601,4.681,0.75c1.559,0.106,5.944,0.15,13.142,0.15h13.443
	c5.48,0.254,9.664,1.258,12.529,3.024c3.726,2.251,5.744,5.87,6.041,10.846C485.107,41.995,485.134,42.904,485.134,43.852"/>
<polygon fill="#5E5F5F" points="217.521,59.527 181.818,46.889 215.501,46.889 "/>
<polygon fill="#C72128" points="206.269,7.602 206.294,7.571 206.251,7.571 184.465,7.571 184.427,7.571 184.454,7.602 
	154.867,59.527 173.597,59.527 195.335,19.649 195.361,19.627 195.383,19.649 217.125,59.527 235.854,59.527 "/>
</svg>
